<svg width="118" height="106" viewBox="0 0 118 106" fill="none" xmlns="http://www.w3.org/2000/svg">
<path d="M0 20C0 8.9543 8.95431 0 20 0H98C109.046 0 118 8.95431 118 20V86C118 97.0457 109.046 106 98 106H20C8.95431 106 0 97.0457 0 86V20Z" fill="#FFF2D1"/>
<path d="M30.333 88L42.0688 20.4609L63.1284 20.5073C70.9523 20.5382 76.828 22.1309 80.7554 25.2852C84.6828 28.4395 86.4609 32.8771 86.0898 38.5981C85.6569 45.4325 81.714 50.4268 74.2612 53.5811C76.9517 54.5088 79.0391 56.256 80.5234 58.8228C82.0078 61.3586 82.6418 64.3582 82.4253 67.8218C81.9924 74.1922 79.4875 79.1556 74.9106 82.7119C70.3647 86.2373 64.1489 88 56.2632 88H30.333ZM49.0732 58.5908L45.8726 76.8208L56.5879 76.8672C59.9277 76.8672 62.7264 76.0477 64.9839 74.4087C67.2414 72.7388 68.5866 70.4967 69.0195 67.6826C69.4525 64.8994 69.0659 62.7347 67.8599 61.1885C66.6847 59.6113 64.6901 58.7609 61.876 58.6372L49.0732 58.5908ZM50.7432 48.7568L59.9741 48.8496C63.4067 48.7878 66.2054 47.9837 68.3701 46.4375C70.5658 44.8913 71.88 42.742 72.313 39.9897C73.0861 34.547 70.2256 31.8102 63.7314 31.7793L53.7119 31.7329L50.7432 48.7568Z" fill="#FFC531"/>
</svg>
